<svg xmlns="http://www.w3.org/2000/svg" width="109.534" height="71.171" viewBox="0 0 109.534 71.171"><path d="M92.008,33.165a14.387,14.387,0,0,0,1.1-5.5c0-8.42-7.359-15.251-16.43-15.251a17.254,17.254,0,0,0-9.122,2.574A27.8,27.8,0,0,0,43.813,2.25C28.684,2.25,16.43,13.625,16.43,27.668c0,.429.017.858.034,1.287C6.88,32.085,0,40.568,0,50.545c0,12.63,11.039,22.876,24.645,22.876H87.627c12.1,0,21.907-9.1,21.907-20.335C109.534,43.253,102,35.039,92.008,33.165ZM67.329,42.919H56.136V60.712A2.653,2.653,0,0,1,53.4,63.254H45.183a2.653,2.653,0,0,1-2.738-2.542V42.919H31.251a2.519,2.519,0,0,1-1.934-4.337L47.356,21.838a2.9,2.9,0,0,1,3.868,0L69.263,38.582a2.522,2.522,0,0,1-1.934,4.337Z" transform="translate(0 -2.25)" fill="rgba(112,112,112,0.5)"/></svg>