<?xml version="1.0" encoding="utf-8"?>
<!-- Generator: Adobe Illustrator 23.0.5, SVG Export Plug-In . SVG Version: 6.00 Build 0)  -->
<svg version="1.1" id="Layer_1" xmlns="http://www.w3.org/2000/svg" xmlns:xlink="http://www.w3.org/1999/xlink" x="0px" y="0px"
	 viewBox="0 0 1280 1280" style="enable-background:new 0 0 1280 1280;" xml:space="preserve">
<g>
	<g transform="translate(0.000000,1280.000000) scale(0.100000,-0.100000)">
		<path d="M6055.9,12789c-740-46-1469-219-2145-509c-284-121-817-407-985-528c-22-15-108-77-191-136c-179-126-366-275-521-412
			c-163-144-375-344-398-375c-11-15-63-74-115-131c-1223-1342-1815-3153-1624-4968c153-1459,796-2809,1835-3849
			c665-665,1429-1156,2315-1486c406-151,865-268,1304-330c341-48,510-59,900-59c374-1,519,8,810,45c85,11,182,23,215,25
			c33,3,121,19,195,35c707,160,1097,293,1625,554c386,191,672,366,1000,612c261,196,285,223,237,271c-17,17-43,20-233,25
			c-1742,51-3386,839-4545,2177c-1184,1368-1717,3206-1453,5010c218,1494,969,2854,2124,3849c116,100,115,98,115,132
			c0,52-22,59-186,58C6252.9,12798,6127.9,12793,6055.9,12789z"/>
	</g>
	<polygon points="1277,393.9 1022.4,393.9 1022.4,139.3 767.8,139.3 767.8,393.9 513.2,393.9 513.2,648.5 767.8,648.5 767.8,903.1 
		1022.4,903.1 1022.4,648.5 1277,648.5 	"/>
</g>
</svg>
